/* XPM */
static char *e627da33cb2540b8836325962ddc3503[] = {
/* columns rows colors chars-per-pixel */
"16 16 149 2 ",
"   c #000C92",
".  c #001C97",
"X  c #00229D",
"o  c #0025A1",
"O  c #002CA1",
"+  c #0033A2",
"@  c #0039AB",
"#  c #003FAD",
"$  c #093DA8",
"%  c #0542A9",
"&  c #0044AC",
"*  c #0044AD",
"=  c #124BAE",
"-  c #0040B1",
";  c #0046B1",
":  c #0047B5",
">  c #034AB7",
",  c #0E4CB3",
"<  c #0B4FBB",
"1  c #0F50B0",
"2  c #1C5CB9",
"3  c #1C5FBF",
"4  c #205FBD",
"5  c #285BB8",
"6  c #2D6CBF",
"7  c #4D61B6",
"8  c #4365BA",
"9  c #4067BA",
"0  c #566EBA",
"q  c #516FBF",
"w  c #1355C0",
"e  c #1C5BC5",
"r  c #1E5EC4",
"t  c #1F5DC6",
"y  c #2663C2",
"u  c #2764C0",
"i  c #2C67C6",
"p  c #2F6CC6",
"a  c #2A65CD",
"s  c #2C67CE",
"d  c #306BC0",
"f  c #366ECA",
"g  c #306ACD",
"h  c #3C72C4",
"j  c #3C73C6",
"k  c #3D75C5",
"l  c #3970C9",
"z  c #3A71C9",
"x  c #3870CB",
"c  c #3B72CD",
"v  c #3E75CC",
"b  c #2664D3",
"n  c #3A71D1",
"m  c #3870DA",
"M  c #4074C5",
"N  c #4377CE",
"B  c #4679C8",
"V  c #487BCD",
"C  c #4478D0",
"Z  c #4579D6",
"A  c #497CD5",
"S  c #637AC3",
"D  c #607EC2",
"F  c #4E80CB",
"G  c #5783CA",
"H  c #5686CF",
"J  c #5886CC",
"K  c #5987CE",
"L  c #5A87CE",
"P  c #5C88CE",
"I  c #4E80D5",
"U  c #5283D0",
"Y  c #5384D3",
"T  c #5081D6",
"R  c #5282D6",
"E  c #5283DA",
"W  c #5986D9",
"Q  c #5887D9",
"!  c #5987DD",
"~  c #5F8CD9",
"^  c #5E8BDF",
"/  c #5F8CDC",
"(  c #6C84C8",
")  c #6C87C8",
"_  c #608DD2",
"`  c #608DDD",
"'  c #6591D4",
"]  c #6590D5",
"[  c #6693D4",
"{  c #6F98D4",
"}  c #6590DE",
"|  c #6E97DD",
" . c #6F98DA",
".. c #7B98D2",
"X. c #7D9BD3",
"o. c #7C9ED6",
"O. c #789FDA",
"+. c #789EDF",
"@. c #7DA2DD",
"#. c #7CA1DE",
"$. c #628EE1",
"%. c #6892E2",
"&. c #789EE3",
"*. c #7CA1E1",
"=. c #8F97CF",
"-. c #85A2D5",
";. c #81A4D9",
":. c #81A5DF",
">. c #8FA4D9",
",. c #88A9DD",
"<. c #8EACDC",
"1. c #8CACDF",
"2. c #8DACDF",
"3. c #97AADB",
"4. c #A8B1DC",
"5. c #84A6E0",
"6. c #89AAE3",
"7. c #91AFE2",
"8. c #90AFEA",
"9. c #92B0E3",
"0. c #96B3E2",
"q. c #92B0E5",
"w. c #98B5E5",
"e. c #99B5E6",
"r. c #9AB6E6",
"t. c #9BB7E7",
"y. c #96B2E8",
"u. c #97B4E9",
"i. c #9BB8E9",
"p. c #9EBAEA",
"a. c #A7BEE4",
"s. c #A6BFE5",
"d. c #A0BBED",
"f. c #A4BDEE",
"g. c #A9C1E8",
"h. c #A8C1E9",
"j. c #ACC3E9",
"k. c #AFC5EE",
"l. c #B2C3E6",
"z. c #B2CAE8",
"x. c #B5CAEB",
"c. c #B3C8F1",
"v. c #B4CAF0",
"b. c #C2D4EC",
"n. c #C4D5ED",
"m. c #C6D6EE",
"M. c #CFDDEF",
"N. c #C4DBF0",
"B. c None",
/* pixels */
"B.B.B.B.B.B.B.B.B.B.B.B.B.B.B.B.",
"B.B.B.B.B.B.v i y 4 B.B.B.B.B.B.",
"B.B.B.B.T C l H F B k 5 B.B.B.B.",
"B.B.B.Q T f t.k.t.7.2.;...B.B.B.",
"B.B.` Q A H c.m a e < : o X B.B.",
"B.B.} A g r q.8.&. .] J J S B.B.",
"B.%.E | t.#.0.M.m.n.b.N.z.) ) B.",
"B.$./ v.d.i.:.] _ J G q =.8 . B.",
"B.^ #.f.b s y < > - @   7 -.+ B.",
"B.! Z y.u.6.5.#.O.[ { ..4.9 % B.",
"B.B.d.r.v.j.h.s.a.l.P M d O B.B.",
"B.B.&.` Y V j d 1 D o.# & = B.B.",
"B.B.B.n c z u 2 $ 0 <.; & B.B.B.",
"B.B.B.B.h.7.2.,.>.3.k , B.B.B.B.",
"B.B.B.B.B.B.C f p 3 B.B.B.B.B.B.",
"B.B.B.B.B.B.B.B.B.B.B.B.B.B.B.B."
};
