/* XPM */
static char *cb813473aff94117fed7edafeb38fa9d[] = {
/* columns rows colors chars-per-pixel */
"32 32 150 2 ",
"   c #00078E",
".  c #001696",
"X  c #001C99",
"o  c #00209C",
"O  c #002A9F",
"+  c #0034A4",
"@  c #003AA6",
"#  c #0E3CA6",
"$  c #003DAB",
"%  c #0142AB",
"&  c #0846AA",
"*  c #0249AD",
"=  c #0B4AAF",
"-  c #1842AC",
";  c #0F51AE",
":  c #0044B1",
">  c #044BB4",
",  c #094EB5",
"<  c #074DBE",
"1  c #084EB8",
"2  c #0451B0",
"3  c #0C50B4",
"4  c #0E51BA",
"5  c #1355B5",
"6  c #1956B6",
"7  c #1559B6",
"8  c #1B5AB6",
"9  c #1556BB",
"0  c #1758BA",
"q  c #1C5CBA",
"w  c #2444AA",
"e  c #2D4EAD",
"r  c #2555B3",
"t  c #2358B2",
"y  c #2E5CB4",
"u  c #235FBA",
"i  c #315BB7",
"p  c #2462BD",
"a  c #2864BF",
"s  c #3C66B9",
"d  c #386BBD",
"f  c #426ABC",
"g  c #4272BF",
"h  c #5470BC",
"j  c #1758C0",
"k  c #1D5DC3",
"l  c #215FC3",
"z  c #2461C5",
"x  c #2A65C2",
"c  c #2D68C3",
"v  c #2662C9",
"b  c #2A66CA",
"n  c #2F6ACD",
"m  c #336CC5",
"M  c #3A6FC1",
"N  c #336CCB",
"B  c #3B72C6",
"V  c #3C73CB",
"C  c #2160D2",
"Z  c #2C68D3",
"A  c #356ED2",
"S  c #3C73D4",
"D  c #4276C7",
"F  c #417BC7",
"G  c #4176CB",
"H  c #4579CD",
"J  c #4C7ECC",
"K  c #4176D4",
"L  c #457AD1",
"P  c #4B7ED3",
"I  c #4C7ED9",
"U  c #6276C0",
"Y  c #647CC2",
"T  c #4E81CE",
"R  c #5182CF",
"E  c #5C84C9",
"W  c #4F80D4",
"Q  c #4F81D9",
"!  c #5383D5",
"~  c #5886D2",
"^  c #5D8AD5",
"/  c #5484D9",
"(  c #5887D8",
")  c #5C8ADB",
"_  c #738DCA",
"`  c #628ED7",
"'  c #628EDD",
"]  c #6691D5",
"[  c #6490DC",
"{  c #6C95DD",
"}  c #6F98DF",
"|  c #759BD6",
" . c #7DA2D6",
".. c #76A1DA",
"X. c #648FE0",
"o. c #6590E0",
"O. c #6A94E2",
"+. c #759CE2",
"@. c #7B9FE6",
"#. c #81A3D6",
"$. c #83A5D9",
"%. c #86AADB",
"&. c #8BABDE",
"*. c #9DB1DC",
"=. c #A5AAD7",
"-. c #A1B3DD",
";. c #ABB3DC",
":. c #B6BBDF",
">. c #83A6E1",
",. c #8EAFE1",
"<. c #8BABE9",
"1. c #90AFE0",
"2. c #95B3E3",
"3. c #9AB6E5",
"4. c #A4BDE2",
"5. c #AEBFE2",
"6. c #A5BDEF",
"7. c #ADC4E7",
"8. c #ACC8E6",
"9. c #AEC5EC",
"0. c #B2C5E5",
"q. c #B9C6E5",
"w. c #B3C8E7",
"e. c #B6CBEA",
"r. c #BBCEEC",
"t. c #BED0ED",
"y. c #ACC3F2",
"u. c #B8CCF4",
"i. c #C0CBE8",
"p. c #C4D4EE",
"a. c #CED7ED",
"s. c #D2D4ED",
"d. c #D8D4EA",
"f. c #D2DBEF",
"g. c #C4D5F2",
"h. c #C8D7F2",
"j. c #CCDAF2",
"k. c #D2DEF4",
"l. c #D5E1F4",
"z. c #DAE4F4",
"x. c #D7E2FC",
"c. c #DBE5F8",
"v. c #E8E3F2",
"b. c #E7EAF6",
"n. c #E4ECF9",
"m. c #F0EFF8",
"M. c #EBF1F9",
"N. c #F0F4FA",
"B. c #FAFBFF",
"V. c None",
/* pixels */
"V.V.V.V.V.V.V.V.V.V.V.V.V.V.V.V.V.V.V.V.V.V.V.V.V.V.V.V.V.V.V.V.",
"V.V.V.V.V.V.V.V.V.V.V.V.V.V.V.V.V.V.V.V.V.V.V.V.V.V.V.V.V.V.V.V.",
"V.V.V.V.V.V.V.V.V.V.V.V.V.V V V m m m V.V.V.V.V.V.V.V.V.V.V.V.V.",
"V.V.V.V.V.V.V.V.V.V.P P H G V B m m x x p m V.V.V.V.V.V.V.V.V.V.",
"V.V.V.V.V.V.V.V.! / P H L V m n c x z p 8 3 3 6 V.V.V.V.V.V.V.V.",
"V.V.V.V.V.V.V./ ! W L W n c G B m m c x a p u ; - V.V.V.V.V.V.V.",
"V.V.V.V.V.V.( ( / P P V J f.n.c.z.z.z.z.z.z.z.z.s.m.V.V.V.V.V.V.",
"V.V.V.V.V.) ) / / W P k g.x.) @.} { ` ^ ~ R P F F u i V.V.V.V.V.",
"V.V.V.V.X.) ( ( ! / P z g.y.A I K G N n x l 0 9 3 , + f V.V.V.V.",
"V.V.V.V.' ) ) / / P P z r.u.I ) ( ! P G V B m c p u 5 @ V.V.V.V.",
"V.V.V.o.' ) ( / ! P J z k.y.C S A n v k 9 4 , : % $ @ . # V.V.V.",
"V.V.V.o.' ) ) / ! / P v 3.B.g.k.j.h.g.g.g.p.r.r.e.e.0.0.7.V.V.V.",
"V.V.V.o.) [ / A n n v k < ] 2.&.&.&.%.$.$.#.#. . .#.4.8.-.V.V.V.",
"V.V.O.o.X./ / y.h.r.r.g.e.3.,.,.&.&.&.&.%.%.$.$.%.E o O . t V.V.",
"V.V.O.o.' K g.n.g.j.h.g.g.g.t.t.r.r.r.q.e.w.8.0.;.v.*.+ % y V.V.",
"V.V.O.o.) / n.} Z S A n v v k j 4 1 > : $ $ @ +   U f.@ * ; V.V.",
"V.V.O.X.) Q k.<./ ' ^ ! W T H V B m m a p u 8 7 + _ i.+ * ; V.V.",
"V.V.O.X.) / l.@.S Q P S S N m x z k 0 5 3 , * % X Y p.@ % y V.V.",
"V.V.O.X.X.I n.y.o.+.} { ` ^ ^ ~ R T H D B M d s w =.f.+ @ g V.V.",
"V.V.V./ / A } j.l.j.j.j.j.h.h.h.p.p.p.p.l.z.l.z.z.f.f % @ V.V.V.",
"V.V.V.O.+.+.( [ O.[ ` ` ^ ~ ~ T R R T B , p u q u = % 2 & V.V.V.",
"V.V.V.n.c.n.n.z.l.l.l.l.f.k.k.k.f.f.s.b.| % 7 5 3 3 7 + f V.V.V.",
"V.V.V.V.Q ) ( ! T S V B m x p u 8 7 # h N.q 0 q 8 7 2 @ V.V.V.V.",
"V.V.V.V.} S / P K V V c x p q 0 3 ; + y z.p 7 q 7 8 + f V.V.V.V.",
"V.V.V.V.V.o.P / P L G V m m z u 8 7 $ s l.p 7 q 8 * r V.V.V.V.V.",
"V.V.V.V.V.V.P n b v k 0 4 1 > % $ @ X e M.p 0 u , & V.V.V.V.V.V.",
"V.V.V.V.V.V.V.9.r.g.g.r.r.e.e.e.w.q.:.d.7.= q 3 u V.V.V.V.V.V.V.",
"V.V.V.V.V.V.V.V.g.>.3.2.2.2.1.1.,.&.,...0 5 q q V.V.V.V.V.V.V.V.",
"V.V.V.V.V.V.V.V.V.V.n b z k k j 9 4 > > 8 m V.V.V.V.V.V.V.V.V.V.",
"V.V.V.V.V.V.V.V.V.V.V.V.V.H V V m B B V.V.V.V.V.V.V.V.V.V.V.V.V.",
"V.V.V.V.V.V.V.V.V.V.V.V.V.V.V.V.V.V.V.V.V.V.V.V.V.V.V.V.V.V.V.V.",
"V.V.V.V.V.V.V.V.V.V.V.V.V.V.V.V.V.V.V.V.V.V.V.V.V.V.V.V.V.V.V.V."
};
