/* XPM */
static char *_70279a62892425482a86268f71d8e8d[] = {
/* columns rows colors chars-per-pixel */
"64 64 146 2 ",
"   c #000C8F",
".  c #001293",
"X  c #001C97",
"o  c #00239B",
"O  c #002A9D",
"+  c #002EA2",
"@  c #0034A3",
"#  c #013BA6",
"$  c #013DA9",
"%  c #093DA8",
"&  c #1A39A5",
"*  c #0040A7",
"=  c #0144AC",
"-  c #044BAE",
";  c #0A4EAF",
":  c #1446AC",
">  c #0551AF",
",  c #0B50AF",
"<  c #0045B2",
"1  c #054AB2",
"2  c #0A4DB4",
"3  c #064CB9",
"4  c #0A4EBA",
"5  c #0D51B2",
"6  c #0F58B4",
"7  c #0E52BA",
"8  c #1355B4",
"9  c #1956B3",
"0  c #1559B6",
"q  c #1A5AB6",
"w  c #1355BA",
"e  c #1758BB",
"r  c #1C5CBA",
"t  c #224CAC",
"y  c #3349AC",
"u  c #2455B1",
"i  c #2955B2",
"p  c #2F5DB6",
"a  c #215FBB",
"s  c #3656B5",
"d  c #325EB6",
"f  c #2462BD",
"g  c #2A64BD",
"h  c #2C68BF",
"j  c #3164BC",
"k  c #3C65B8",
"l  c #336BBF",
"z  c #4C5EB5",
"x  c #5571BE",
"c  c #1456C1",
"v  c #1C5CC2",
"b  c #215FC3",
"n  c #2562C3",
"m  c #2A66C2",
"M  c #2E68C2",
"N  c #2563CA",
"B  c #2A65C9",
"V  c #2E69CB",
"C  c #336CC5",
"Z  c #386EC2",
"A  c #346DCB",
"S  c #386FC8",
"D  c #3770C7",
"F  c #3A72C6",
"G  c #3770CC",
"H  c #3C73CA",
"J  c #356DD3",
"K  c #3C73D3",
"L  c #3C72D9",
"P  c #4579C6",
"I  c #4176CC",
"U  c #4479CE",
"Y  c #4A7CCE",
"T  c #5477C2",
"R  c #547BC5",
"E  c #4176D3",
"W  c #467AD2",
"Q  c #4B7DD2",
"!  c #4C7FDA",
"~  c #5C83C6",
"^  c #5683CA",
"/  c #5A88CE",
"(  c #4E80D4",
")  c #4F81D9",
"_  c #5283D6",
"`  c #5887D7",
"'  c #5C8AD4",
"]  c #5585D9",
"[  c #5887D9",
"{  c #5C8ADB",
"}  c #6182C5",
"|  c #6485C8",
" . c #648ACB",
".. c #6B92CE",
"X. c #628DD4",
"o. c #618EDE",
"O. c #6590D7",
"+. c #6893D6",
"@. c #6691DE",
"#. c #6A94DC",
"$. c #6F98D9",
"%. c #769AD5",
"&. c #749BDD",
"*. c #6691E0",
"=. c #6A94E1",
"-. c #749BE3",
";. c #799FE1",
":. c #7EA2E7",
">. c #8D9FD3",
",. c #8DA0D3",
"<. c #85A7DB",
"1. c #9EAEDA",
"2. c #9EB1DB",
"3. c #86A8E7",
"4. c #8FAEEA",
"5. c #90AEEA",
"6. c #93B1E2",
"7. c #9CB8E1",
"8. c #ACC4EF",
"9. c #B6C4E5",
"0. c #B1C7EB",
"q. c #B6CBEA",
"w. c #BACDED",
"e. c #BED0EF",
"r. c #B7CBF2",
"t. c #BED0F0",
"y. c #C6CAE7",
"u. c #CBD2EB",
"i. c #CBD9EF",
"p. c #D3D5EC",
"a. c #D7DCEF",
"s. c #C1D2F1",
"d. c #CFDCF2",
"f. c #D3DEF2",
"g. c #D6E1F3",
"h. c #DAE4F5",
"j. c #DEE8F7",
"k. c #D9E3F8",
"l. c #DFE8F8",
"z. c #EBEDF7",
"x. c #E1E9F8",
"c. c #EBF0FC",
"v. c #F2F5FC",
"b. c #F6F9FC",
"n. c #FEFEFF",
"m. c None",
/* pixels */
"m.m.m.m.m.m.m.m.m.m.m.m.m.m.m.m.m.m.m.m.m.m.m.m.m.m.m.m.m.m.m.m.m.m.m.m.m.m.m.m.m.m.m.m.m.m.m.m.m.m.m.m.m.m.m.m.m.m.m.m.m.m.m.m.",
"m.m.m.m.m.m.m.m.m.m.m.m.m.m.m.m.m.m.m.m.m.m.m.m.m.m.m.m.m.m.m.m.m.m.m.m.m.m.m.m.m.m.m.m.m.m.m.m.m.m.m.m.m.m.m.m.m.m.m.m.m.m.m.m.",
"m.m.m.m.m.m.m.m.m.m.m.m.m.m.m.m.m.m.m.m.m.m.m.m.m.m.m.m.m.m.m.m.m.m.m.m.m.m.m.m.m.m.m.m.m.m.m.m.m.m.m.m.m.m.m.m.m.m.m.m.m.m.m.m.",
"m.m.m.m.m.m.m.m.m.m.m.m.m.m.m.m.m.m.m.m.m.m.m.m.m.m.m.m.m.m.m.m.m.m.m.m.m.m.m.m.m.m.m.m.m.m.m.m.m.m.m.m.m.m.m.m.m.m.m.m.m.m.m.m.",
"m.m.m.m.m.m.m.m.m.m.m.m.m.m.m.m.m.m.m.m.m.m.m.m.m.m.m.m.m.H H S C D D m.m.m.m.m.m.m.m.m.m.m.m.m.m.m.m.m.m.m.m.m.m.m.m.m.m.m.m.m.",
"m.m.m.m.m.m.m.m.m.m.m.m.m.m.m.m.m.m.m.m.m.m.m.m.U U I I H H S S S C M M M M M D m.m.m.m.m.m.m.m.m.m.m.m.m.m.m.m.m.m.m.m.m.m.m.m.",
"m.m.m.m.m.m.m.m.m.m.m.m.m.m.m.m.m.m.m.m.m.Q W W U U I H I H S D S C C C M g g a f g M m.m.m.m.m.m.m.m.m.m.m.m.m.m.m.m.m.m.m.m.m.",
"m.m.m.m.m.m.m.m.m.m.m.m.m.m.m.m.m.m.m.( Q Q Q U U U I H H H H D S C C C M M m m g r e e ^ m.m.m.m.m.m.m.m.m.m.m.m.m.m.m.m.m.m.m.",
"m.m.m.m.m.m.m.m.m.m.m.m.m.m.m.m.m.m._ ( Q Q Q W U U U U I H S S A D C M M M M n g g g r 2 5 m.m.m.m.m.m.m.m.m.m.m.m.m.m.m.m.m.m.",
"m.m.m.m.m.m.m.m.m.m.m.m.m.m.m.m._ _ ( Q Q Q Y W U P K H H H S D D C M C M M M g g g f a f q 2 g m.m.m.m.m.m.m.m.m.m.m.m.m.m.m.m.",
"m.m.m.m.m.m.m.m.m.m.m.m.m.m.m.] _ _ _ ( Q Q Q W U U U S S S A C C M M M m n n f f a r r r e r = = m.m.m.m.m.m.m.m.m.m.m.m.m.m.m.",
"m.m.m.m.m.m.m.m.m.m.m.m.m.m.] ] ] ) ( ( ( Q Q U W H v m B B n n b b v r r e w w 8 7 7 4 2 2 1 , = + m.m.m.m.m.m.m.m.m.m.m.m.m.m.",
"m.m.m.m.m.m.m.m.m.m.m.m.{ { ] ] ] _ ( ( Q Y Q Q G m 6.g.j.g.g.g.g.f.f.f.k.f.g.g.f.f.f.f.f.f.f.a.g.p.u.n.m.m.m.m.m.m.m.m.m.m.m.m.",
"m.m.m.m.m.m.m.m.m.m.m.m.{ ] ] ] ) _ _ Q Q W Q W n q.n.n.n.n.n.n.n.n.n.n.n.n.n.n.n.n.n.n.n.n.n.n.n.n.n.n.m.m.m.m.m.m.m.m.m.m.m.m.",
"m.m.m.m.m.m.m.m.m.m.m.{ { { ` ] _ _ ( ( ( Q Q B ` n.v.-.=.=.=.=.@.@.O.X.' ` ` ^ ( Q Y W P P H F Z Z Z l s m.m.m.m.m.m.m.m.m.m.m.",
"m.m.m.m.m.m.m.m.m.m.{ { ` ` ` _ _ _ _ ( Q Q Q m $.n.d.L ! ! ! E W K G G A V B m n n r r e w 7 7 2 1 1 = $ + m.m.m.m.m.m.m.m.m.m.",
"m.m.m.m.m.m.m.m.m.o.{ { { { ` ] _ _ ( ( Q Q Q B @.n.k.] *.o.{ { ` ' _ _ Q W U I I H D Z C M m g g f r q q * d m.m.m.m.m.m.m.m.m.",
"m.m.m.m.m.m.m.m.m.{ { { { { ] ] _ _ _ ( Q Q Q B O.n.k.) *.o.o.] ` _ _ Q Q W U I H S C C M m m g f a a q 0 0 @ m.m.m.m.m.m.m.m.m.",
"m.m.m.m.m.m.m.m.*.{ o.{ [ ] ] ] _ _ ( ( Q Q Q B O.n.k.) { { o.{ ` _ ! Q Q W U I H H D C C M m g f a r q 0 9 - @ m.m.m.m.m.m.m.m.",
"m.m.m.m.m.m.m.@.o.o.{ { { ] { _ ] _ _ Q Q Q Y B @.n.k.) *.{ { { ` _ _ Q Q W U I H H D C C m g g f a r q 0 0 0 + } m.m.m.m.m.m.m.",
"m.m.m.m.m.m.m.*.o.o.{ { { ` ] ] _ ) ( ( Q Q Q B O.n.k.] *.@.{ { [ ` ! Q Q Q U I H H D D C M m g f a a q 0 0 8 - % m.m.m.m.m.m.m.",
"m.m.m.m.m.m.*.o.o.o.{ { { ` ` ] ) _ _ ( Q Q Y B #.n.d.E ] ) ) Q W W U I H G A C M m n f r r e w 8 > 2 - - = = = o d m.m.m.m.m.m.",
"m.m.m.m.m.m.*.@.o.{ { { { ] ` ] ] _ _ ( Q Q Q B X.n.c.*.o.*.o.o.{ ` ] _ ( Q Y U P I H D Z C M M h g f a r q 9 9 : u m.m.m.m.m.m.",
"m.m.m.m.m.m.*.*.o.o.{ { { ` ` ] _ _ ( ( Q Y Q U B d.n.n.n.n.n.b.n.n.n.n.n.n.n.n.n.n.n.n.n.n.n.n.n.n.n.n.n.n.n.n.n.n.m.m.m.m.m.m.",
"m.m.m.m.m.*.*.o.o.{ { { { ] ] ] ] _ _ _ ( Q Y ( A A 0.n.n.n.n.n.n.n.n.n.b.n.b.n.b.n.b.b.b.n.n.b.n.b.n.b.n.b.n.b.b.v.n.m.m.m.m.m.",
"m.m.m.m.m.=.*.*.o.o.o.{ { { ] W W W E E I K H G K m w C C C B m n n n b a a r w e e q w 8 8 5 2 2 1 - 5 8 5 , , , # d m.m.m.m.m.",
"m.m.m.m.m.*.*.o.*.{ { o.{ K W [ _ _ Q Q ( Y Q U U W K M B B m n n b a a v r r e w w 8 , 5 2 2 1 - 1 - + @ - = = = # * m.m.m.m.m.",
"m.m.m.m.m.*.*.*.{ o.{ o.K ;.k.n.n.b.b.n.b.b.b.b.b.b.b.b.b.n.b.n.b.n.n.b.n.b.b.n.b.n.n.n.b.n.b.n.b.n.n.9.i $ 0 5 , - = m.m.m.m.m.",
"m.m.m.m.m.=.*.o.*.{ o.W #.n.n.n.n.n.n.n.n.n.n.n.n.n.n.n.n.n.n.n.n.n.n.n.n.n.n.n.n.n.n.n.n.n.n.n.n.n.n.n.z.: = , ; > # m.m.m.m.m.",
"m.m.m.m.=.*.*.o.o.o.{ K t.n.8.) @.o.o.o.{ { ` _ _ ( ( Q Y U P H H D S C C M M g f f f r r q q 0 9 , & y.n.| @ , ; ; @ ~ m.m.m.m.",
"m.m.m.m.=.=.*.*.*.*.{ L t.n.:.L { ] ) ) Q Q W K I H G G A M M M m n n r r e w 8 5 7 2 > - = = = * = . ,.n...@ 5 ; ; * j m.m.m.m.",
"m.m.m.m.=.*.*.*.{ { { L w.n.5.) @.o.{ { { ] _ _ _ Q Q U U I K H S C C M M m m g f f a q q q 9 8 , , O 2.n. .@ , ; ; = q m.m.m.m.",
"m.m.m.m.=.*.*.*.o.o.o.K w.n.4.! @.o.{ { ` ` ] _ ( Q Y W P I I H S C C C m m g g a a r q q 8 8 5 , , O 1.n. .@ 8 ; ; = q m.m.m.m.",
"m.m.m.m.=.*.*.{ o.o.{ L w.n.4.! @.@.{ { ` ] _ ( Q ( Y U U I H H S D C M M m g f a a r q q q 0 5 , , O 1.n. .@ , ; ; * g m.m.m.m.",
"m.m.m.m.=.*.*.*.o.{ { K w.n.5.! @.o.{ { { ] _ ( ( Q W U I K H D S C C M m m m f f a a q q q 6 5 , , O 1.n. .@ 8 ; , @ ~ m.m.m.m.",
"m.m.m.m.m.*.*.*.o.o.o.L w.n.5.! *.o.o.{ ` ` ] _ ( ( Q Q U P I H S D D Z M m m f f a a a q 6 8 8 5 , O 1.n. .@ , ; - # m.m.m.m.m.",
"m.m.m.m.m.*.*.*.o.o.{ L s.n.:.J ] ) ) ( W W K K H G V A M B m n n v r e e e 8 4 2 1 1 = = * * $ * *   ,.n...@ 8 ; > - m.m.m.m.m.",
"m.m.m.m.m.*.*.*.o.{ { K w.n.r.{ =.=.*.@.O.o.{ ' ` ` _ ( ( ( Y Y U I P H D Z C Z M l l j j j j p p u y p.n.~ @ , ; = ; m.m.m.m.m.",
"m.m.m.m.m.*.o.@.o.o.o.( o.b.n.n.n.n.b.n.n.n.n.n.n.n.n.n.n.n.n.n.n.n.n.n.n.n.n.n.n.n.n.n.n.n.n.n.n.n.n.n.a.% 2 , , # i m.m.m.m.m.",
"m.m.m.m.m.3.{ @.o.o.{ o.E @.s.x.j.h.j.j.h.j.h.h.h.h.h.h.g.k.h.g.k.g.h.g.g.g.g.g.f.f.g.f.f.f.f.a.a.g.g.2.: * 8 , , + ~ m.m.m.m.m.",
"m.m.m.m.m.m.! ) ) ) Q ! _ J B V V B B N n b v v r c c e c 7 7 4 4 3 < < < < < < w 7 4 2 , ; ; - 1 - - @ = 0 8 , > # m.m.m.m.m.m.",
"m.m.m.m.m.m.-.=.=.=.=.@.o.O.o.{ { { ` ] _ _ _ ( ( Q Q Y U I I P H P F H Z Z D g 1 r f r r q w w 8 8 , 8 8 8 , , * u m.m.m.m.m.m.",
"m.m.m.m.m.m.n.n.n.n.n.n.n.n.n.n.n.n.n.n.n.n.n.n.n.n.n.n.n.n.n.n.n.n.n.n.n.n.n.n.<.< f f a r r r q q 9 8 8 5 , 6 + x m.m.m.m.m.m.",
"m.m.m.m.m.m.m.k.l.x.x.l.j.j.j.j.h.h.h.h.h.h.g.h.g.g.g.g.g.f.f.f.f.a.f.a.a.a.p.n.n.%.= f a r r q q q 0 8 8 8 8 = * m.m.m.m.m.m.m.",
"m.m.m.m.m.m.m.;.L [ ! ! W W E K G G A V B B m b r v e w 7 7 2 2 ; - - = % $ X x n.g.; r a a r q q 9 w 8 8 , 8 O  .m.m.m.m.m.m.m.",
"m.m.m.m.m.m.m.m.! [ { [ ] _ Q Q W Q H H H S D M M m m n f a q q w 8 > , - - + i n.f.2 r a r r r q q w 8 8 9 - @ m.m.m.m.m.m.m.m.",
"m.m.m.m.m.m.m.m.m.E o.{ { _ _ _ ( W W P P H H D C C M g f f a r q q 9 9 5 5 # k n.i.2 r a a r r q 0 9 9 8 5 @ m.m.m.m.m.m.m.m.m.",
"m.m.m.m.m.m.m.m.m.*.Q o.[ ] _ ( ( Q W W H H G D C C M h g f f r r q w 5 5 5 @ k n.i.4 r a r r q q q w 8 q # d m.m.m.m.m.m.m.m.m.",
"m.m.m.m.m.m.m.m.m.m.E ) { ] ) _ Q Q W I I H S D C C m h f f f f r q 9 8 8 > @ k n.i.2 a a a a q q q 9 0 ; O m.m.m.m.m.m.m.m.m.m.",
"m.m.m.m.m.m.m.m.m.m.m.E ] [ _ ( ( Q U U U H H D C C M m g f r r r 0 8 8 8 5 @ k n.i.; r a r r r q q q , # m.m.m.m.m.m.m.m.m.m.m.",
"m.m.m.m.m.m.m.m.m.m.m.m.K ] ` _ ( Q W U U H H H D C M M m g f a r q w 9 , 5 @ k n.i.2 a a r r q q e 8 # m.m.m.m.m.m.m.m.m.m.m.m.",
"m.m.m.m.m.m.m.m.m.m.m.m.#.E G V V B B n v v v e 7 w 2 2 1 < < = * $ # # @ # . t n.g.2 r a r q r r 8 * g m.m.m.m.m.m.m.m.m.m.m.m.",
"m.m.m.m.m.m.m.m.m.m.m.m.m.m.&.;.&.&.$.$.+.+.O.X.X.' ' / / ^ ^ ^ ^ R R R T T z 1.n.e.= a a r r r 8 - m.m.m.m.m.m.m.m.m.m.m.m.m.m.",
"m.m.m.m.m.m.m.m.m.m.m.m.m.m.m.n.n.n.n.n.n.n.n.n.n.n.n.n.n.n.n.n.n.n.n.n.n.n.n.n.b.M 2 g a a a ; - m.m.m.m.m.m.m.m.m.m.m.m.m.m.m.",
"m.m.m.m.m.m.m.m.m.m.m.m.m.m.m.m.g.w.s.s.s.e.e.e.e.t.w.w.w.w.w.w.w.q.q.q.0.q.w.7.C 1 m a a r 2 g m.m.m.m.m.m.m.m.m.m.m.m.m.m.m.m.",
"m.m.m.m.m.m.m.m.m.m.m.m.m.m.m.m.m.m.G V V V B B n n b v v r e c w w 7 7 5 4 3 < 8 M g r 5 8 m.m.m.m.m.m.m.m.m.m.m.m.m.m.m.m.m.m.",
"m.m.m.m.m.m.m.m.m.m.m.m.m.m.m.m.m.m.m.Q Q Q Q U U U E P H H S H A C Z M M M M M M r e r P m.m.m.m.m.m.m.m.m.m.m.m.m.m.m.m.m.m.m.",
"m.m.m.m.m.m.m.m.m.m.m.m.m.m.m.m.m.m.m.m.m.Q Q W U U I H H H H S D C M C M M g a a m M m.m.m.m.m.m.m.m.m.m.m.m.m.m.m.m.m.m.m.m.m.",
"m.m.m.m.m.m.m.m.m.m.m.m.m.m.m.m.m.m.m.m.m.m.m.m.U U U H I H S S D C M B M M M C m.m.m.m.m.m.m.m.m.m.m.m.m.m.m.m.m.m.m.m.m.m.m.m.",
"m.m.m.m.m.m.m.m.m.m.m.m.m.m.m.m.m.m.m.m.m.m.m.m.m.m.m.m.m.H S S D D F m.m.m.m.m.m.m.m.m.m.m.m.m.m.m.m.m.m.m.m.m.m.m.m.m.m.m.m.m.",
"m.m.m.m.m.m.m.m.m.m.m.m.m.m.m.m.m.m.m.m.m.m.m.m.m.m.m.m.m.m.m.m.m.m.m.m.m.m.m.m.m.m.m.m.m.m.m.m.m.m.m.m.m.m.m.m.m.m.m.m.m.m.m.m.",
"m.m.m.m.m.m.m.m.m.m.m.m.m.m.m.m.m.m.m.m.m.m.m.m.m.m.m.m.m.m.m.m.m.m.m.m.m.m.m.m.m.m.m.m.m.m.m.m.m.m.m.m.m.m.m.m.m.m.m.m.m.m.m.m.",
"m.m.m.m.m.m.m.m.m.m.m.m.m.m.m.m.m.m.m.m.m.m.m.m.m.m.m.m.m.m.m.m.m.m.m.m.m.m.m.m.m.m.m.m.m.m.m.m.m.m.m.m.m.m.m.m.m.m.m.m.m.m.m.m.",
"m.m.m.m.m.m.m.m.m.m.m.m.m.m.m.m.m.m.m.m.m.m.m.m.m.m.m.m.m.m.m.m.m.m.m.m.m.m.m.m.m.m.m.m.m.m.m.m.m.m.m.m.m.m.m.m.m.m.m.m.m.m.m.m."
};
